<svg enable-background="new 0 0 432 432" viewBox="0 0 432 432" xmlns="http://www.w3.org/2000/svg"><path d="m372.2 293.5c-5.4-11.4-12.9-20.1-22.7-26.3s-21-9.3-33.8-9.3c-11.4 0-21.3 2.5-29.7 7.5-8.5 5-14.9 12.1-19.3 21.2v-167.2c0-38.4-16.1-57.7-48.4-57.7-11 0-20.7 2.5-29.3 7.6s-14.9 12.1-19.1 21.1c-7.2-19.1-22-28.7-44.5-28.7-10.2 0-19.1 2.3-26.9 6.9s-13.8 11.2-18.2 19.7v-23h-23.9v145.5h24.2v-83c0-14.1 3.5-25.3 10.5-33.5s16.5-12.2 28.7-12.2c10.4 0 17.9 3 22.7 9.1s7.2 15.9 7.2 29.4v90.2h24.2v-83c0-14.1 3.5-25.3 10.5-33.5s16.5-12.2 28.7-12.2c10.4 0 17.9 3.1 22.6 9.3s7 15.9 7 29.3v286.4h24.2v-26.6c4.4 9.2 10.8 16.2 19.3 21.2s18.4 7.5 29.7 7.5c12.7 0 24-3.2 33.8-9.6s17.3-15.3 22.7-26.7 8.1-24.7 8.1-39.9c-.3-15-3-28.1-8.3-39.5zm-28.4 80.8c-7.8 9.9-18.7 14.8-32.9 14.8-14.1 0-25-4.8-32.7-14.5s-11.5-23.3-11.5-41.1c0-17.7 3.8-31.4 11.5-40.9 7.7-9.6 18.6-14.3 32.7-14.3s25.1 4.8 32.9 14.3c7.8 9.6 11.7 23 11.7 40.3-.1 17.8-3.9 31.6-11.7 41.4z"/></svg>